<svg width="17" height="20" viewBox="0 0 17 20" fill="none" xmlns="http://www.w3.org/2000/svg">
<path d="M4.02688 19.6263C3.63256 19.3639 3.28308 19.0398 2.99188 18.6663C2.67155 18.2807 2.37477 17.8762 2.10313 17.455C1.46568 16.5211 0.965772 15.5005 0.61875 14.4244C0.201875 13.1744 0 11.9763 0 10.8044C0 9.49563 0.283125 8.35313 0.836875 7.39313C1.24736 6.64278 1.85088 6.01573 2.585 5.57688C3.29644 5.13498 4.1139 4.89316 4.95125 4.87688C5.24437 4.87688 5.56 4.91938 5.895 5.00063C6.13562 5.06875 6.42875 5.17625 6.78688 5.31C7.2425 5.48563 7.49312 5.59313 7.57812 5.61938C7.845 5.71688 8.06938 5.75938 8.24562 5.75938C8.37937 5.75938 8.56813 5.71688 8.7825 5.65188C8.90313 5.60938 9.13062 5.53438 9.45625 5.395C9.77875 5.2775 10.0325 5.17688 10.2344 5.10188C10.5437 5.01063 10.8431 4.92625 11.11 4.88375C11.4264 4.83387 11.7475 4.82066 12.0669 4.84438C12.6204 4.88055 13.1656 4.99785 13.685 5.1925C14.5344 5.53438 15.2213 6.06813 15.7325 6.82688C15.5164 6.96006 15.3136 7.11368 15.1269 7.28563C14.7204 7.64599 14.3741 8.06904 14.1012 8.53875C13.7446 9.18066 13.5596 9.90379 13.5644 10.6381C13.5775 11.54 13.8088 12.3344 14.2644 13.0213C14.5993 13.5303 15.0347 13.9657 15.5437 14.3006C15.8044 14.4763 16.0288 14.5969 16.2438 14.6781C16.1431 14.9906 16.0356 15.2931 15.9087 15.5931C15.621 16.2659 15.2723 16.9109 14.8669 17.52C14.5056 18.0444 14.2225 18.435 14.0075 18.695C13.6725 19.0919 13.35 19.395 13.0244 19.6063C12.6663 19.8438 12.2431 19.9706 11.8131 19.9706C11.5219 19.9818 11.2308 19.9466 10.9506 19.8663C10.71 19.785 10.4719 19.6969 10.2375 19.5963C9.99384 19.4843 9.74259 19.3897 9.48563 19.3131C8.85044 19.15 8.18446 19.1489 7.54875 19.31C7.28813 19.385 7.0375 19.4725 6.79 19.58C6.44187 19.7263 6.21063 19.8244 6.07688 19.8663C5.81 19.9444 5.53312 19.9931 5.25312 20.0094C4.82 20.0094 4.41625 19.8856 4.01625 19.635L4.02688 19.6263ZM9.73937 4.24188C9.17312 4.525 8.6325 4.64563 8.09562 4.60625C8.01125 4.06563 8.09562 3.5125 8.32 2.90688C8.51102 2.39379 8.79327 1.91949 9.15312 1.50688C9.53313 1.07251 9.99425 0.716485 10.5106 0.45875C11.0606 0.175625 11.585 0.0225 12.0863 0C12.1513 0.56625 12.0863 1.12313 11.8781 1.725C11.6855 2.25705 11.4038 2.75246 11.045 3.19C10.6788 3.62496 10.2294 3.98237 9.72313 4.24125L9.73937 4.24188Z" fill="white"/>
</svg>
